<svg width="207" height="306" viewBox="0 0 207 306" fill="none" xmlns="http://www.w3.org/2000/svg">
<path fill-rule="evenodd" clip-rule="evenodd" d="M148.092 16.7899C150.553 16.0763 152.832 13.5577 153.754 10.1576C155.012 5.55421 153.321 1.07674 149.994 0.167249C146.653 -0.756229 142.934 2.23808 141.676 6.84148C140.781 10.1436 141.396 13.3898 143.046 15.2927L138.586 20.6237L130.45 30.5021C130.954 31.3976 131.177 32.461 131.01 33.5524C130.954 33.9022 130.856 34.252 130.73 34.5598L131.107 36.9105C127.976 36.9805 124.747 37.1484 121.475 37.4142L122.202 35.0076C121.755 34.1401 121.573 33.1327 121.727 32.0972C121.741 32.0413 121.755 31.9853 121.755 31.9293L115.702 22.1209L112.081 16.3421C114.066 14.719 115.199 11.5148 114.737 8.01682C114.108 3.28749 110.837 -0.182554 107.412 0.265193C103.973 0.726932 101.708 4.92457 102.324 9.6539C102.771 13.054 104.588 15.7964 106.839 16.9158L104.798 23.5621L101.289 35.2035C101.541 35.6932 101.722 36.2249 101.792 36.8126C101.834 37.1064 101.848 37.4002 101.834 37.6941L103.232 39.9608C99.8072 40.6464 96.4242 41.444 93.167 42.3395L92.9154 39.4711C92.7057 39.0233 92.5519 38.5476 92.482 38.0299C92.3981 37.3863 92.454 36.7566 92.6218 36.1549L92.5379 35.3154L81.8575 27.4658L76.3356 23.4641C77.5798 21.2114 77.426 17.8113 75.7066 14.747C73.358 10.5914 69.0244 8.60449 66.0188 10.3115C63.0132 12.0326 62.468 16.7759 64.8026 20.9315C66.4801 23.9119 69.1921 25.7868 71.6944 25.9687L72.2816 32.8948L73.33 44.5362C74.9377 44.6342 76.4475 45.5436 77.2723 47.0688C77.4261 47.3766 77.5519 47.6844 77.6497 48.0063C74.6581 49.4335 71.9321 51.0006 69.5556 52.7076V52.6796C69.262 52.3718 68.9964 52.008 68.7867 51.6162C68.0458 50.217 68.0598 48.6079 68.6889 47.2647L57.6171 40.1007L51.8715 36.4208C52.9899 34.0981 52.6404 30.726 50.7252 27.7597C48.153 23.7579 43.7075 22.0369 40.7997 23.9119C37.892 25.8008 37.6404 30.5721 40.2126 34.5878C42.0719 37.4702 44.8817 39.1632 47.3981 39.1912L48.3766 46.0893L50.3477 59.2419L59.4764 65.1606C59.9237 66.21 60.5528 67.4133 61.2657 68.7845L61.2797 68.7985C62.5938 71.3311 64.2294 74.4513 65.5854 78.3272C65.9628 77.9634 66.8156 77.2917 67.3748 76.886C78.6702 68.9385 122.734 53.3373 157.64 62.3622C160.73 63.1877 163.75 64.2091 166.685 65.4404C167.859 60.1514 168.614 55.4361 168.964 51.4903L176.205 44.4803L175.59 31.2017L175.227 24.3736C177.771 23.9398 180.301 21.6871 181.601 18.413C183.349 13.9775 182.175 9.34607 178.959 8.0588C175.744 6.77152 171.718 9.33208 169.956 13.7676C168.698 16.9438 168.95 20.2319 170.39 22.3168L165.371 27.116L157.347 34.8817C157.822 36.113 157.794 37.5262 157.151 38.7715C157.039 38.9953 156.914 39.1912 156.774 39.3871C154.327 38.6875 151.503 38.1278 148.414 37.7221C148.162 36.6447 148.274 35.4833 148.819 34.4339C149.239 33.6084 149.882 32.9647 150.623 32.531L149.197 23.5341L148.092 16.7899ZM136.867 74.7452C128.535 74.3394 120.343 74.9271 112.682 76.1444C124.859 96.293 122.636 95.3975 113.829 91.8295C108.461 89.6608 100.66 86.4985 92.1884 86.4985H92.0067C112.011 114.917 97.3608 107.487 83.5491 100.477L83.5351 100.463C77.5658 97.4264 71.7504 94.488 68.9684 94.558C68.9684 94.6 68.9684 94.6419 68.9824 94.6979L68.9265 94.558C68.6469 94.558 68.4093 94.6 68.1996 94.6699C67.0253 94.6699 65.2359 94.6699 63.0831 94.6699C62.8175 94.6839 62.4121 94.6979 61.9088 94.7259H61.8808C57.4773 94.8938 45.1194 95.3835 35.9209 96.5449C31.4335 97.6363 27.617 98.5597 24.8631 99.1474C24.7512 99.1614 24.6953 99.0215 24.7932 98.9375C33.2927 92.0534 45.0635 84.8755 66.0747 83.8121C66.0607 83.0565 66.0607 82.231 66.0607 81.3215C91.7271 61.5226 153.377 59.3119 166.839 69.5401C168.083 77.0819 167.3 80.5379 166.839 81.3215C164.337 80.2581 161.806 79.3486 159.262 78.565C159.29 78.579 159.318 78.607 159.346 78.621C159.36 78.635 159.388 78.649 159.402 78.663C159.416 78.663 159.43 78.677 159.444 78.677C160.241 79.0687 160.884 79.4745 161.359 79.8943C161.219 79.8103 161.065 79.7404 160.912 79.6564C161.219 79.8803 161.513 80.1042 161.806 80.328C161.681 80.1881 161.527 80.0342 161.359 79.8943C174.947 87.0862 162.701 101.484 157.654 107.025C157.626 107.067 157.571 107.067 157.529 107.039C156.983 106.675 156.41 105.682 155.585 104.227V104.213C153.111 99.889 148.372 91.5917 135.413 84.1899C135.315 84.1199 135.357 83.98 135.469 83.966C143.996 83.5322 146.653 85.0714 148.68 86.2467C149.784 86.8903 150.707 87.408 152.286 87.45C153.852 85.5191 152.594 82.175 136.629 75.8226C136.629 75.3888 136.713 75.025 136.867 74.7452ZM89.8259 73.0381C89.8818 73.0102 89.9377 73.0102 89.9936 73.0241L92.8175 73.8217C92.8315 73.8217 92.8594 73.8357 92.8734 73.8497L94.7467 75.039C94.8725 75.123 94.8865 75.2909 94.7746 75.4028L93.167 76.9279C93.153 76.9419 93.125 76.9559 93.1111 76.9699L90.4829 78.2852C90.441 78.3132 90.3851 78.3132 90.3291 78.2992L87.5053 77.5016H87.4913C87.4773 77.5016 87.4773 77.4876 87.4773 77.4876C87.4633 77.4876 87.4633 77.4876 87.4633 77.4876C87.4493 77.4876 87.4493 77.4736 87.4493 77.4736L85.5761 76.2843C85.4503 76.2004 85.4363 76.0325 85.5342 75.9205L87.1558 74.3954V74.3814C87.1698 74.3814 87.1698 74.3814 87.1698 74.3814C87.1837 74.3674 87.1977 74.3674 87.2117 74.3534L89.8259 73.0381ZM115.884 67.0915C115.842 67.0775 115.772 67.0915 115.73 67.1055L113.088 68.3788C113.06 68.3788 113.046 68.3928 113.032 68.4067L111.382 69.9039C111.27 70.0019 111.284 70.1838 111.41 70.2677L113.256 71.499C113.27 71.499 113.283 71.513 113.283 71.513L113.311 71.527H113.325L116.121 72.3805C116.177 72.3945 116.233 72.3805 116.289 72.3665L118.931 71.0932C118.945 71.0932 118.959 71.0932 118.959 71.0792C118.973 71.0792 118.973 71.0792 118.987 71.0653L120.637 69.5681C120.735 69.4701 120.721 69.2883 120.609 69.2043L118.763 67.973H118.749C118.749 67.973 118.749 67.973 118.735 67.959C118.722 67.959 118.708 67.945 118.694 67.945L115.884 67.0915ZM146.289 66.5738C146.331 66.5598 146.401 66.5738 146.443 66.6018L149.057 67.917C149.085 67.931 149.099 67.945 149.113 67.959L150.721 69.4981C150.832 69.5961 150.818 69.778 150.693 69.8479L148.805 71.0373V71.0513H148.777C148.777 71.0653 148.777 71.0653 148.777 71.0653C148.763 71.0653 148.763 71.0653 148.75 71.0653L145.926 71.8488C145.87 71.8628 145.814 71.8628 145.772 71.8348L143.144 70.5056C143.13 70.5056 143.13 70.4916 143.13 70.4916H143.116C143.116 70.4776 143.102 70.4776 143.102 70.4776C143.102 70.4776 143.102 70.4776 143.088 70.4636L141.494 68.9384C141.382 68.8265 141.396 68.6586 141.522 68.5747L143.395 67.3853C143.409 67.3853 143.409 67.3853 143.409 67.3853L143.423 67.3713H143.437L143.451 67.3573L146.289 66.5738ZM203.298 122.878C208.833 119.408 210.231 118.54 190.702 121.423C190.367 121.465 190.045 121.199 190.059 120.863C190.422 110.985 198.936 107.627 206.191 105.906C206.457 105.85 206.639 105.612 206.569 105.36C205.017 100.029 176.093 97.4684 172.277 107.333C172.221 107.459 172.235 107.599 172.291 107.725C172.934 109.222 174.416 111.544 176.401 114.357C176.513 114.511 176.681 114.595 176.876 114.581C178.61 114.469 179.7 113.895 180.679 113.377C181.504 112.944 182.23 112.566 183.195 112.538C183.517 112.524 183.74 112.832 183.656 113.14C183.265 114.567 182.426 115.854 181.573 117.183L181.559 117.211C181.154 117.841 180.735 118.484 180.357 119.156C180.245 119.352 180.273 119.59 180.413 119.758C183.614 123.941 187.361 128.531 190.912 132.672C191.163 132.966 191.653 132.91 191.862 132.575C194.365 128.461 199.705 125.117 203.298 122.878ZM0.273125 160.307C0.105367 160.335 -0.034425 160.181 0.00751442 160.013C6.98329 137.15 20.2918 117.057 37.864 101.792C38.0597 101.624 38.3393 101.876 38.1856 102.1C28.4558 115.882 20.5155 131.035 14.7559 147.238C18.9358 147 23.0458 146.553 27.0998 145.909C27.2815 145.881 27.4213 146.077 27.3375 146.245C17.3002 165.708 11.6245 187.801 11.6245 211.238C11.6245 222.558 12.9386 233.556 15.4409 244.106C15.5108 244.371 15.1333 244.511 15.0215 244.26C8.4092 228.938 4.73259 212.036 4.73259 194.266C4.73259 180.344 6.31227 168.646 9.40175 158.852C6.31227 159.23 3.27872 159.705 0.273125 160.307ZM45.7345 128.853C45.7205 128.629 45.4409 128.559 45.3151 128.741C39.5835 138.129 35.6972 148.568 33.8939 159.467C31.6711 172.858 32.6497 186.584 36.7457 199.513C38.577 205.32 41.0234 210.888 44.015 216.135C44.1548 216.359 44.4903 216.233 44.4344 215.968C43.1203 210.007 42.4353 203.794 42.4353 197.428C42.4353 177.671 49.1036 159.467 60.3011 144.958C60.4409 144.776 60.2592 144.524 60.0495 144.608C54.1781 146.888 48.6143 150.303 43.5118 155.326C43.344 155.494 43.0784 155.34 43.1203 155.116C45.2033 145.111 45.9722 136.436 45.7345 128.853ZM193.778 255.663C193.47 256.195 192.645 256.055 192.505 255.467C188.367 237.25 187.71 239.082 185.53 245.071C183.852 249.716 181.252 256.88 175.408 259.133C175.045 259.259 174.654 259.035 174.542 258.671C172.976 253.298 169.188 249.325 165.693 245.659C160.227 239.908 155.474 234.913 161.01 226.518C162.002 225.02 165.05 224.167 168.978 223.061H168.992C174.346 221.564 181.336 219.619 187.081 214.946C187.417 214.68 187.92 214.778 188.214 215.086C189.248 216.163 191.107 216.835 193.19 217.591C201.061 220.431 212.105 224.433 193.778 255.663ZM206.904 196.658V196.672C207.841 204.368 201.704 211.462 197.203 212.064C191.261 212.847 188.913 209.699 190.786 200.898C191.834 197.904 194.644 194.951 197.482 191.971H197.496V191.957C200.502 188.809 203.521 185.633 204.458 182.386C204.514 182.233 204.696 182.163 204.807 182.288C206.876 184.807 206.904 196.379 206.904 196.658ZM127.668 293.274C127.612 293.526 127.934 293.68 128.088 293.47C145.968 268.48 125.25 243.868 106.461 221.55L106.448 221.536L106.308 221.368C104.616 219.368 102.953 217.381 101.331 215.422C99.7234 212.945 97.934 210.72 96.1586 208.524C88.6935 199.275 81.6199 190.516 90.7206 164.533C91.1959 163.567 91.7271 162.574 92.3002 161.538C92.496 167.933 93.0691 174.159 93.4466 177.181C93.4466 184.555 101.583 198.072 112.221 197.442L111.983 197.092H111.969C108.223 191.747 106.126 188.753 105.441 184.038C105.539 184.121 105.637 184.205 105.749 184.289C105.763 184.303 105.776 184.317 105.804 184.331C105.846 184.373 105.902 184.415 105.944 184.457C106 184.499 106.056 184.541 106.112 184.597C106.168 184.639 106.224 184.681 106.28 184.723C115.618 191.775 124.956 188.319 133.19 185.269H133.204C139.998 182.764 146.051 180.525 150.721 184.723C150.315 184.723 149.91 184.723 149.49 184.723C149.476 184.723 149.476 184.723 149.476 184.723H149.448C143.871 185.815 132.813 190.908 134.239 198.002C134.267 198.128 134.393 198.198 134.518 198.17C135.064 198.016 135.609 197.862 136.126 197.722C137.454 197.344 138.67 196.994 139.789 196.686L139.817 196.672H139.845C147.282 194.574 150.05 193.79 150.106 193.972C150.147 194.084 149.239 194.518 147.785 195.231L147.757 195.245C142.808 197.652 131.611 203.095 129.989 208.734C129.947 208.887 130.087 209.027 130.255 208.985C132.17 208.454 134.029 207.376 136.056 206.201L136.084 206.187C138.391 204.858 140.907 203.417 143.913 202.521C144.122 202.451 144.276 202.717 144.122 202.885C139.998 207.083 136.238 211.266 133.61 214.232C133.456 214.414 133.652 214.666 133.875 214.596C157.836 206.047 157.025 206.467 152.23 208.957C148.568 210.846 142.571 213.953 143.507 215.184C143.507 215.184 143.507 215.184 143.507 215.198H143.521V215.226H143.535C145.352 218.682 173.088 225.37 184.817 207.53C184.817 207.516 184.817 207.516 184.817 207.516C184.831 207.502 184.831 207.502 184.831 207.488L184.845 207.474C188.004 196.449 179.756 193.118 172.305 190.124C170.026 189.215 166.07 187.452 166.056 187.27C165.371 186.122 164.574 184.457 164.644 182.512H164.658L164.672 182.498H164.686C167.846 180.945 174.654 181.421 181.476 181.883C198.6 183.058 215.809 184.247 175.66 153.703C175.618 153.661 175.59 153.619 175.576 153.577C175.464 153.185 175.325 152.807 175.185 152.443C174.835 150.764 174.402 149.001 173.885 147.154C174.36 147.574 174.668 148.12 175.003 148.679V148.693C175.548 149.603 176.121 150.61 177.477 151.408C178.148 151.66 179.365 151.604 180.763 151.52C182.426 151.422 184.369 151.324 186.075 151.73C187.263 152.331 188.256 152.905 189.038 153.423L189.052 153.437C190.367 154.318 191.093 155.06 191.093 155.648C188.242 160.797 189.416 161.384 192.603 162.993C192.925 163.161 193.246 163.329 193.596 163.497C198.097 152.485 184.425 133.89 174.835 122.57C174.416 122.038 173.955 121.451 173.493 120.849L173.242 120.541V120.527L173.228 120.513C170.739 117.323 167.86 113.657 166.727 112.776C166.699 112.762 166.657 112.748 166.615 112.748C165.874 112.762 164.588 114.497 163.12 116.47V116.484C161.764 118.303 160.269 120.317 158.941 121.325L158.927 121.339H158.899L158.857 121.353C154.495 114.595 120.581 100.798 111.284 100.798C114.612 103.583 118.833 105.808 122.734 107.85C128.521 110.901 133.596 113.573 133.973 117.141C128.759 117.729 124.565 118.359 121.238 119.03C115.255 119.814 107.146 118.205 98.9405 116.568C85.632 113.937 72.0439 111.237 66.8436 118.568C60.2732 125.942 66.2145 131.763 68.4093 133.806C68.7308 134.1 68.7168 134.072 68.619 133.694C68.3813 132.812 67.6404 130.028 69.4857 125.201C69.4997 125.173 69.5136 125.159 69.5276 125.131C72.3235 121.913 84.5556 125.271 98.4932 129.104L100.017 129.524C100.017 129.888 100.017 130.266 100.017 130.658C76.7131 155.298 74.8678 176.398 77.7616 191.397C75.5808 189.383 68.8007 181.295 69.6115 159.146C69.6255 158.894 69.29 158.824 69.1781 159.034C52.3049 190.74 74.5742 212.693 96.4941 234.297C114.821 252.375 132.897 270.201 127.668 293.274ZM140.236 151.702V151.688C140.683 151.548 140.767 150.834 141.117 147.728V147.714L141.159 147.266L141.201 147.224L141.229 147.21C141.256 147.182 141.284 147.154 141.312 147.14L141.326 147.126H141.354C142.151 147.378 142.78 147.742 143.409 148.204C170.012 171.151 147.393 159.439 143.871 157.299C143.717 157.201 143.521 157.313 143.535 157.494C143.591 158.362 143.815 159.369 144.178 160.475C132.268 165.274 123.209 162.168 119.295 160.825C118.805 160.657 118.4 160.517 118.078 160.419C119.42 158.992 120.665 157.313 120.665 156.683C120.539 156.039 117.841 155.606 115.59 155.648C119.057 149.309 127.599 150.428 134.113 151.282H134.141C136.587 151.604 138.74 151.884 140.236 151.716C140.236 151.716 140.236 151.716 140.236 151.702Z" fill="white"/>
<path d="M113.353 306C103.909 269.557 41.8678 249.8 42.6572 226.968C88.9993 261.682 86.5716 259.049 78.4729 248.102C78.4729 248.102 63.9419 230.1 64.7606 222.285C83.2678 248.57 135.778 274.797 113.353 306Z" fill="white"/>
</svg>
