<svg width="18" height="18" viewBox="0 0 18 18" fill="none" xmlns="http://www.w3.org/2000/svg">
    <path
        d="M11.6667 8.99686L17.4528 3.21271C18.1824 2.48341 18.1824 1.27628 17.4528 0.546979C16.7233 -0.182326 15.5157 -0.182326 14.7862 0.546979L9.00002 6.33112L3.21385 0.546979C2.48429 -0.182326 1.27674 -0.182326 0.547185 0.546979C-0.182375 1.27628 -0.182375 2.48341 0.547185 3.21271L6.33335 8.99686L0.547185 14.781C-0.182375 15.5103 -0.182375 16.7174 0.547185 17.4467C0.924544 17.824 1.40253 18 1.88052 18C2.35851 18 2.83649 17.824 3.21385 17.4467L9.00002 11.6626L14.7862 17.4467C15.1635 17.824 15.6415 18 16.1195 18C16.5975 18 17.0755 17.824 17.4528 17.4467C18.1824 16.7174 18.1824 15.5103 17.4528 14.781L11.6667 8.99686Z"
        fill="#A2ABB8" />
</svg>