<svg width="61" height="107" viewBox="0 0 61 107" fill="none" xmlns="http://www.w3.org/2000/svg">
<path fill-rule="evenodd" clip-rule="evenodd" d="M38.9759 4.30062C39.6132 4.11976 40.2031 3.47382 40.44 2.60396C40.7673 1.42405 40.328 0.278585 39.4668 0.0417412C38.6055 -0.190796 37.6452 0.571409 37.3223 1.75132C37.0897 2.59965 37.2491 3.43076 37.6754 3.91737L36.5213 5.28245L34.4199 7.81452C34.549 8.04275 34.605 8.31405 34.562 8.59395C34.549 8.68439 34.5232 8.77482 34.4931 8.85664L34.5878 9.4552C33.7782 9.47243 32.9428 9.51549 32.0988 9.58439L32.2883 8.9686C32.172 8.74467 32.1246 8.4863 32.1634 8.21931C32.1677 8.20639 32.1677 8.19347 32.172 8.18055L30.6045 5.6657L29.6701 4.18435C30.1868 3.77095 30.4753 2.94846 30.3548 2.05276C30.1954 0.842704 29.3471 -0.0486904 28.4643 0.0675787C27.5772 0.183847 26.9873 1.26041 27.1509 2.47477C27.2629 3.34463 27.7322 4.04655 28.3179 4.33077L27.7882 6.03604L26.8796 9.02027C26.9485 9.14515 26.9916 9.28295 27.0131 9.42937C27.0217 9.50688 27.026 9.58009 27.0217 9.6576L27.3834 10.2389C26.4964 10.4112 25.6265 10.6136 24.7825 10.8461L24.7179 10.1098C24.6619 9.99779 24.6231 9.87291 24.6059 9.74372C24.5844 9.57578 24.5973 9.41645 24.6404 9.26142L24.6188 9.04611L21.8585 7.03509L20.4332 6.0102C20.7561 5.43317 20.7131 4.5633 20.2695 3.77957C19.6623 2.71162 18.5427 2.20348 17.7633 2.64272C16.9882 3.08195 16.8461 4.29632 17.4532 5.36427C17.8839 6.12647 18.5858 6.60447 19.236 6.65183L19.3824 8.42601L19.6537 11.4059C20.0714 11.4318 20.4633 11.6686 20.6743 12.0605C20.7131 12.138 20.7475 12.2155 20.7733 12.2973C19.9982 12.6634 19.2963 13.0638 18.6805 13.5031L18.6762 13.4945C18.603 13.4126 18.5384 13.3222 18.4824 13.2232C18.2886 12.8614 18.2929 12.4524 18.4566 12.1079L15.5929 10.2734L14.1116 9.33032C14.4001 8.73606 14.3054 7.8705 13.8144 7.1126C13.147 6.08341 12.0015 5.64417 11.2479 6.12647C10.4986 6.60877 10.4297 7.83175 11.0972 8.86094C11.5752 9.59731 12.303 10.0322 12.9532 10.0409L13.2073 11.8064L13.7154 15.1739L16.0752 16.6897C16.1915 16.961 16.3508 17.2667 16.536 17.6199L16.5403 17.6242C16.8805 18.2701 17.3025 19.0711 17.6556 20.0658C17.7504 19.9754 17.9743 19.7988 18.1164 19.6955C21.036 17.6586 32.4218 13.6624 41.4477 15.9749C42.2443 16.1859 43.028 16.4486 43.7816 16.7672C44.0874 15.4064 44.2812 14.2007 44.3716 13.193L46.2405 11.393L46.0855 7.99108L45.9907 6.24274C46.6453 6.13078 47.2998 5.55374 47.6357 4.71833C48.0922 3.58148 47.7865 2.39295 46.9553 2.06568C46.1242 1.7341 45.0821 2.38865 44.63 3.5255C44.3027 4.34369 44.3716 5.1834 44.7376 5.71738L43.4414 6.94466L41.3701 8.93845C41.495 9.2485 41.4864 9.61023 41.3185 9.9332C41.2883 9.98918 41.2582 10.0409 41.2194 10.0882C40.5864 9.90736 39.8586 9.76525 39.062 9.6619C38.9931 9.3863 39.0232 9.08917 39.1653 8.81788C39.273 8.60687 39.4409 8.44323 39.6304 8.33127L39.2644 6.03173L38.9759 4.30062ZM36.0735 19.1486C33.9203 19.0409 31.806 19.1959 29.8251 19.506C32.973 24.6692 32.4002 24.4366 30.1222 23.5237C28.7356 22.9682 26.7203 22.1586 24.5284 22.1586H24.481C29.6528 29.4362 25.8676 27.5328 22.2978 25.7371H22.2935C20.7475 24.9577 19.2446 24.2041 18.5298 24.2213C18.5298 24.2343 18.5298 24.2472 18.5341 24.2558L18.5169 24.2213C18.4437 24.2256 18.3834 24.2343 18.3274 24.2515C18.026 24.2515 17.5652 24.2515 17.0054 24.2515H17.0097C16.9365 24.2558 16.8331 24.2601 16.7039 24.2644H16.6953C15.5585 24.3075 12.3632 24.4323 9.9905 24.7295C8.82781 25.0094 7.84168 25.2505 7.13115 25.3969C7.10101 25.4012 7.08809 25.3668 7.10962 25.3453C9.30581 23.584 12.3503 21.7409 17.7805 21.4696C17.7762 21.2759 17.7762 21.0649 17.7762 20.8323C24.4078 15.7596 40.3453 15.1954 43.8204 17.8136C44.1434 19.7428 43.941 20.6299 43.8204 20.8323C43.1788 20.561 42.5242 20.3285 41.8654 20.1261C41.8697 20.1304 41.8783 20.1347 41.8869 20.139C41.8912 20.1433 41.8955 20.1476 41.8998 20.1476C41.9041 20.1519 41.9084 20.1519 41.9127 20.1562C42.1194 20.2553 42.2831 20.3586 42.4079 20.4663C42.3692 20.4448 42.3304 20.4232 42.2874 20.406C42.3692 20.462 42.4467 20.5223 42.5242 20.5782C42.4898 20.5395 42.451 20.5007 42.4079 20.4663C45.9175 22.3094 42.7568 25.9955 41.452 27.4166C41.4433 27.4252 41.4261 27.4295 41.4175 27.4209C41.2754 27.3261 41.129 27.0721 40.9137 26.7017V26.6974C40.2764 25.5864 39.0491 23.4634 35.6988 21.5644C35.673 21.5515 35.6859 21.5127 35.7117 21.5084C37.9165 21.3964 38.6055 21.7926 39.1309 22.094C39.4151 22.2577 39.6519 22.3912 40.061 22.3998C40.4658 21.9089 40.1386 21.0519 36.0175 19.4242C36.0175 19.3122 36.0347 19.2218 36.0735 19.1486ZM23.9212 18.7093C23.9341 18.705 23.9471 18.705 23.96 18.705L24.692 18.9117C24.6963 18.9117 24.7006 18.916 24.705 18.916L25.1916 19.2218C25.2217 19.2433 25.226 19.2907 25.2002 19.3165L24.7825 19.7084C24.7782 19.7084 24.7739 19.7127 24.7695 19.717L24.0892 20.0529C24.0762 20.0615 24.0633 20.0615 24.0504 20.0572L23.3183 19.8548L23.314 19.8505C23.3097 19.8505 23.3097 19.8505 23.3097 19.8505H23.3054C23.3054 19.8505 23.3054 19.8462 23.3011 19.8462L22.8188 19.5404C22.7887 19.5189 22.7844 19.4758 22.8102 19.45L23.2279 19.0581V19.0538H23.2322C23.2365 19.0495 23.2408 19.0495 23.2408 19.0495L23.9212 18.7093ZM30.6562 17.1892C30.6433 17.1849 30.626 17.1849 30.6131 17.1935L29.9284 17.5165C29.9241 17.5165 29.9198 17.5208 29.9155 17.5251L29.4892 17.9084C29.4634 17.9342 29.4677 17.9773 29.4978 17.9988L29.9758 18.3175H29.9801L29.9887 18.3218L30.7165 18.5414C30.7294 18.5457 30.7466 18.5414 30.7595 18.5371L31.4442 18.2141C31.4442 18.2098 31.4485 18.2098 31.4485 18.2098C31.4528 18.2055 31.4528 18.2055 31.4528 18.2055H31.4572L31.8792 17.8179C31.9093 17.7964 31.905 17.749 31.8749 17.7275L31.3969 17.4132H31.3926V17.4088C31.3883 17.4088 31.3839 17.4088 31.3796 17.4045L30.6562 17.1892ZM38.5108 17.0557C38.5237 17.0514 38.5409 17.0514 38.5539 17.06L39.2299 17.4002C39.2342 17.4002 39.2385 17.4045 39.2429 17.4088L39.6563 17.8007C39.6864 17.8266 39.6821 17.8739 39.6476 17.8955L39.1653 18.1969C39.161 18.1969 39.161 18.2012 39.161 18.2012H39.1567C39.1524 18.2012 39.1524 18.2012 39.1524 18.2055H39.1481L38.4161 18.4079C38.4031 18.4079 38.3902 18.4079 38.3773 18.4036L37.7012 18.0634C37.6969 18.0634 37.6969 18.0591 37.6969 18.0591C37.6969 18.0591 37.6969 18.0591 37.6926 18.0591V18.0548C37.6883 18.0548 37.6883 18.0548 37.6883 18.0548C37.6883 18.0548 37.6883 18.0548 37.684 18.0505L37.2706 17.6586C37.2448 17.6328 37.2491 17.5897 37.2792 17.5682L37.7658 17.2624C37.7658 17.2624 37.7658 17.2624 37.7701 17.2624V17.2581H37.7787L38.5108 17.0557ZM53.2468 31.4774C54.6765 30.5903 55.0382 30.3664 49.9913 31.1027C49.9008 31.1156 49.819 31.0467 49.8233 30.9606C49.918 28.4285 52.1185 27.5716 53.9961 27.1281C54.0607 27.1151 54.108 27.0548 54.0908 26.9903C53.6903 25.6252 46.2147 24.9663 45.2285 27.4941C45.2156 27.5285 45.2156 27.563 45.2285 27.5974C45.3965 27.9764 45.7797 28.575 46.2922 29.2941C46.3223 29.3329 46.3697 29.3544 46.4171 29.3544C46.8649 29.3242 47.1448 29.1778 47.3989 29.0443C47.6099 28.9324 47.7994 28.8333 48.0491 28.829C48.131 28.8247 48.1912 28.9022 48.1697 28.9841C48.0707 29.3458 47.851 29.6774 47.6314 30.0219L47.6271 30.0262C47.5195 30.1898 47.4161 30.3534 47.3171 30.5214C47.2912 30.5731 47.2955 30.6333 47.33 30.6807C48.1611 31.753 49.1257 32.9243 50.0429 33.9836C50.1118 34.0611 50.2367 34.0482 50.2884 33.9621C50.9343 32.907 52.3166 32.0501 53.2468 31.4774ZM0.775125 41.0631C0.727756 41.0717 0.693306 41.0329 0.706225 40.9899C2.51054 35.1334 5.94693 29.9874 10.49 26.0773C10.5417 26.03 10.6106 26.0989 10.5718 26.1548C8.05699 29.6817 6.00722 33.5659 4.51726 37.7171C5.59382 37.6568 6.66177 37.5406 7.70819 37.3769C7.75556 37.3726 7.79001 37.42 7.76847 37.4631C5.17181 42.4454 3.70768 48.1081 3.70768 54.111C3.70768 57.0091 4.04788 59.8297 4.69381 62.534C4.71104 62.5986 4.61199 62.6331 4.58616 62.5685C2.87658 58.6455 1.92489 54.3134 1.92489 49.766C1.92489 46.1961 2.33399 43.2033 3.13064 40.6927C2.33829 40.7875 1.55025 40.9124 0.775125 41.0631ZM12.5226 33.0104C12.5226 32.9501 12.4451 32.9329 12.4149 32.9803C10.9336 35.3874 9.93021 38.0573 9.46083 40.8478C8.8881 44.2799 9.14217 47.7938 10.2015 51.1096C10.6752 52.5952 11.3082 54.0206 12.079 55.3684C12.1135 55.4244 12.1996 55.39 12.1867 55.3254C11.8465 53.7967 11.6699 52.2077 11.6699 50.5756C11.6699 45.5114 13.3924 40.8478 16.2862 37.1315C16.325 37.0884 16.2776 37.0238 16.2216 37.0453C14.7058 37.631 13.2676 38.5052 11.9455 39.7927C11.9068 39.8315 11.8379 39.7927 11.8465 39.7368C12.3848 37.1745 12.5829 34.9525 12.5226 33.0104ZM26.1045 66.0996H26.1088V66.1039C26.4834 66.47 26.8624 66.8231 27.237 67.1719C29.4246 69.2001 31.4787 71.1121 31.3883 74.9059V86.0591C31.3883 86.339 31.2849 86.5801 31.0739 86.7868C30.8715 86.9892 30.626 87.0926 30.3504 87.0926H28.8777C28.1844 87.0926 27.6763 86.7912 27.349 86.1883L23.8782 79.871C23.8782 79.8624 23.8695 79.8538 23.8609 79.8538C23.848 79.8538 23.8394 79.8624 23.8394 79.871V86.0591C23.8394 86.339 23.736 86.5801 23.5337 86.7868C23.327 86.9892 23.0858 87.0926 22.8059 87.0926H21.3332C21.0533 87.0926 20.8121 86.9892 20.6054 86.7868C20.3987 86.5801 20.2954 86.339 20.2954 86.0591V74.9145C20.2954 74.6389 20.3987 74.3978 20.6054 74.1911C20.8121 73.9844 21.0533 73.8853 21.3332 73.8853H22.8059C23.4949 73.8853 24.003 74.1868 24.3303 74.7896L27.8055 81.1026C27.8055 81.1155 27.8098 81.1241 27.8227 81.1241C27.8313 81.1241 27.8399 81.1155 27.8399 81.1026V75.1083C27.7968 73.4246 23.8782 70.436 19.503 67.4259C15.4293 64.6226 11.6355 61.7977 11.4029 58.2278C11.3986 58.1804 11.4589 58.1546 11.502 58.1847C23.4777 67.0771 23.0514 66.5216 20.8422 63.6709H20.8379C19.3566 61.7546 17.07 58.8048 17.2078 56.9876C17.2078 56.9402 17.2724 56.923 17.3025 56.9618C18.8485 58.9039 22.3107 62.336 24.748 64.7518V64.7561C25.0753 65.0833 25.3896 65.3891 25.6739 65.6733C25.803 65.8025 25.9408 65.936 26.083 66.0781L26.1045 66.0996ZM50.7836 65.4924C50.7061 65.6302 50.4908 65.5915 50.4563 65.4408C49.3884 60.7771 49.2161 61.2422 48.6563 62.7795C48.2214 63.968 47.5496 65.8068 46.0381 66.3795C45.9434 66.414 45.8443 66.358 45.8142 66.2633C45.4094 64.8896 44.4319 63.869 43.5276 62.9259C42.1151 61.4575 40.8835 60.1742 42.3175 58.0254C42.5716 57.6421 43.3596 57.4225 44.3759 57.1426H44.3802C45.7625 56.7594 47.5711 56.2598 49.0568 55.0627C49.1429 54.9938 49.2721 55.0196 49.3496 55.0972C49.6123 55.3728 50.0946 55.545 50.6329 55.7388C52.6654 56.4665 55.5248 57.4914 50.7836 65.4924ZM54.1769 50.3775V50.3818C54.4181 52.3541 52.8334 54.1713 51.6707 54.322C50.1334 54.5244 49.5262 53.7192 50.0128 51.4627C50.2798 50.6962 51.0118 49.9383 51.7439 49.1761L51.7482 49.1718C52.5233 48.3665 53.3028 47.5526 53.5482 46.7215C53.5611 46.6827 53.6085 46.6655 53.6343 46.7C54.1726 47.3416 54.1769 50.3043 54.1769 50.3775ZM33.7007 75.1298C33.6878 75.1901 33.7696 75.2289 33.8084 75.1772C38.429 68.7738 33.072 62.4695 28.2189 56.7551V56.7508H28.2145L28.1758 56.7077C27.7409 56.1952 27.3102 55.6871 26.8925 55.1833C26.4791 54.546 26.0141 53.9775 25.5576 53.4177C23.6284 51.0493 21.7982 48.8014 24.1494 42.1483C24.2743 41.8985 24.4078 41.6444 24.5585 41.3817C24.6102 43.0181 24.7566 44.6157 24.8557 45.3866C24.8557 47.277 26.9571 50.7392 29.7088 50.5799L29.6442 50.4895C28.6753 49.1201 28.1327 48.3536 27.9519 47.1478C27.9777 47.165 28.0078 47.1866 28.0337 47.2081C28.038 47.2124 28.0423 47.2167 28.0466 47.221C28.0595 47.2296 28.0724 47.2425 28.0854 47.2512C28.0983 47.2641 28.1155 47.2727 28.1284 47.2856C28.1413 47.2985 28.1586 47.3071 28.1715 47.3201C30.583 49.1244 32.9988 48.2416 35.1261 47.4622H35.1304C36.8873 46.8162 38.4505 46.2435 39.6563 47.3201C39.5529 47.3201 39.4452 47.3201 39.3376 47.3201H39.3333H39.329C37.8864 47.6 35.027 48.9005 35.3974 50.722C35.4017 50.7521 35.4361 50.7737 35.4706 50.7651C35.6127 50.722 35.7505 50.6875 35.884 50.6488C36.2285 50.5541 36.5428 50.4636 36.8314 50.3818H36.8443V50.3775C38.7649 49.8435 39.484 49.6411 39.5012 49.6885C39.5098 49.7186 39.273 49.8306 38.8984 50.0115L38.894 50.0158C37.6108 50.6316 34.717 52.0268 34.2993 53.4694C34.2864 53.5081 34.3251 53.5469 34.3682 53.534C34.8591 53.3962 35.3457 53.1206 35.8668 52.8235L35.8754 52.8191C36.4739 52.479 37.1199 52.1086 37.895 51.8761C37.951 51.8588 37.994 51.9277 37.951 51.9708C36.8873 53.0474 35.9141 54.1196 35.2337 54.8775C35.195 54.9249 35.2467 54.9895 35.3026 54.9723C41.4993 52.7847 41.2883 52.8923 40.0481 53.5254C39.1007 54.012 37.5505 54.8043 37.7916 55.123C37.7916 55.123 37.7916 55.123 37.796 55.1273V55.1316H37.8003C38.2696 56.0187 45.4395 57.7326 48.4668 53.1636C48.4668 53.1636 48.4668 53.1636 48.4668 53.1593C48.4711 53.1593 48.4711 53.1593 48.4711 53.1593C48.4711 53.155 48.4711 53.155 48.4755 53.1507V53.1464C49.2936 50.3215 47.162 49.4732 45.2328 48.7024C44.6472 48.4698 43.6266 48.0177 43.618 47.9703C43.4414 47.6775 43.2391 47.2555 43.2563 46.7559V46.7516H43.2649V46.7473C44.0831 46.3512 45.8443 46.4717 47.6056 46.5923C52.0324 46.8937 56.4765 47.1995 46.1027 39.3707C46.0941 39.3664 46.0855 39.3535 46.0812 39.3406C46.051 39.2415 46.0166 39.1425 45.9778 39.0521C45.8874 38.6214 45.7754 38.1693 45.6462 37.6956C45.7668 37.8032 45.8486 37.9411 45.9348 38.0875V38.0918C46.0726 38.3243 46.2233 38.5784 46.5721 38.7851C46.7486 38.8497 47.0587 38.8324 47.4204 38.8152C47.851 38.7894 48.3549 38.7635 48.7941 38.8669C49.0999 39.0219 49.3582 39.1683 49.5606 39.3018V39.3061H49.5649C49.9051 39.5301 50.0903 39.7195 50.0903 39.8703C49.3539 41.1923 49.6554 41.343 50.4822 41.7521V41.7564C50.564 41.7951 50.6501 41.8382 50.7362 41.8856C51.8989 39.0607 48.3678 34.298 45.8917 31.3999C45.7797 31.2621 45.6635 31.1113 45.5429 30.9563L45.4783 30.8788V30.8745L45.474 30.8702C44.8281 30.0563 44.0874 29.1132 43.7946 28.8893C43.7859 28.885 43.7773 28.8807 43.7644 28.8807C43.5749 28.885 43.2391 29.3329 42.8644 29.8367H42.8601C42.5113 30.3061 42.128 30.8228 41.7835 31.0769C41.7835 31.0812 41.7792 31.0812 41.7792 31.0812H41.7706L41.762 31.0855C40.6295 29.3544 31.8662 25.8233 29.4634 25.8233C30.3246 26.5338 31.4141 27.1022 32.4218 27.6276C33.9203 28.4113 35.2337 29.096 35.3285 30.0089C33.9806 30.1553 32.8954 30.319 32.0385 30.4912C30.4926 30.6893 28.3954 30.2802 26.2767 29.8625H26.2724C22.836 29.1864 19.3264 28.4931 17.9786 30.3707C16.2819 32.2654 17.815 33.7511 18.3834 34.2764C18.4652 34.3539 18.4652 34.3453 18.4394 34.2506C18.3791 34.0224 18.1853 33.3075 18.6633 32.0716C18.6633 32.0673 18.6676 32.0587 18.6719 32.0544C19.3953 31.2276 22.5561 32.0932 26.1605 33.0707L26.5523 33.1783C26.5523 33.2731 26.5523 33.3721 26.5523 33.4712C20.5322 39.7841 20.0499 45.1885 20.7992 49.0296C20.2351 48.5129 18.4867 46.4416 18.6977 40.7659C18.6977 40.7057 18.6116 40.6884 18.5815 40.7401C14.2235 48.8574 19.9767 54.4814 25.6437 60.0192C30.3763 64.6484 35.0486 69.2173 33.7007 75.1298ZM36.9476 38.8626V38.8583C37.0639 38.8238 37.0854 38.6387 37.1715 37.842V37.8377L37.1845 37.7257L37.1931 37.7214L37.1974 37.7171L37.2017 37.7085C37.2103 37.7042 37.2189 37.6956 37.2275 37.6913H37.2361C37.4428 37.7559 37.6065 37.8463 37.7701 37.9669C44.6429 43.8406 38.7993 40.8435 37.8864 40.2923C37.8476 40.2664 37.796 40.2966 37.8003 40.3439C37.8132 40.5679 37.8735 40.8262 37.9682 41.1061C34.8892 42.3377 32.5466 41.5411 31.5347 41.1966C31.4098 41.1535 31.3021 41.1191 31.2203 41.0975C31.5691 40.7272 31.8878 40.2966 31.8878 40.1372C31.8576 39.9736 31.16 39.8616 30.5787 39.8703C31.4744 38.2468 33.6835 38.5353 35.3629 38.7549H35.3715C36.0046 38.8368 36.5601 38.91 36.9476 38.8669C36.9476 38.8626 36.9476 38.8626 36.9476 38.8626ZM59.1463 80.4739C58.3712 79.7677 57.032 79.1648 55.1286 78.6566C54.3406 78.4413 53.9487 78.0796 53.9487 77.5715C53.9487 77.2442 54.0951 76.9815 54.3836 76.7834C54.6765 76.5853 55.1071 76.482 55.6755 76.482C56.5841 76.482 57.5057 76.6542 58.4401 76.9901C58.6942 77.0849 58.9396 77.0762 59.1851 76.9557C59.4262 76.8351 59.5727 76.6456 59.62 76.3916L59.8224 75.582C59.8784 75.2892 59.8396 75.0093 59.7018 74.738C59.564 74.4667 59.353 74.2901 59.0774 74.204C57.9621 73.8552 56.765 73.6786 55.4946 73.6786C53.8195 73.6786 52.5233 74.0317 51.6018 74.7293C50.6803 75.4313 50.2195 76.3786 50.2195 77.5715C50.2195 78.6566 50.5984 79.5567 51.3477 80.2672C52.1013 80.9777 53.3587 81.5892 55.1286 82.093C56.0975 82.3729 56.5841 82.7648 56.5841 83.2686C56.5841 84.0567 56.0372 84.4486 54.9477 84.4486C53.9918 84.4486 52.954 84.1686 51.8386 83.6131C51.6104 83.4926 51.3736 83.4796 51.1281 83.5701C50.887 83.6605 50.7276 83.8242 50.6587 84.0653L50.4219 84.9179C50.3358 85.2194 50.3444 85.5122 50.4477 85.7964C50.5511 86.0806 50.7362 86.283 51.0032 86.3993C52.2262 86.9677 53.4836 87.2519 54.7669 87.2519C56.6186 87.2519 58.0095 86.9031 58.931 86.2098C59.8526 85.5165 60.3133 84.5088 60.3133 83.1782C60.3133 82.0844 59.9258 81.1801 59.1463 80.4739ZM40.44 78.9495H44.5482C44.8281 78.9495 45.0692 79.0528 45.2759 79.2595C45.4826 79.4662 45.586 79.7031 45.586 79.983V85.34C45.586 85.6543 45.4955 85.9385 45.3104 86.1926C45.1295 86.4423 44.8927 86.6103 44.5998 86.6964C43.2218 87.084 41.8524 87.2735 40.4917 87.2735C38.2739 87.2735 36.5084 86.6577 35.195 85.4304C33.8773 84.1988 33.2184 82.5538 33.2184 80.4868C33.2184 78.3767 33.86 76.7188 35.139 75.5131C36.418 74.3073 38.2007 73.7045 40.4917 73.7045C41.8611 73.7045 43.0754 73.9499 44.1304 74.4451C44.3974 74.5657 44.5826 74.7724 44.6816 75.0695C44.785 75.3624 44.785 75.6509 44.6773 75.9308L44.4017 76.5983C44.3027 76.8394 44.1304 77.003 43.885 77.0978C43.6352 77.1882 43.3898 77.1796 43.1486 77.0676C42.4209 76.7318 41.6544 76.5638 40.8577 76.5638C39.6089 76.5638 38.64 76.9083 37.9467 77.593C37.2577 78.282 36.9089 79.2466 36.9089 80.4868C36.9089 81.7184 37.2663 82.683 37.9811 83.3763C38.7003 84.0696 39.6563 84.4141 40.8577 84.4141C41.2194 84.4141 41.5984 84.3667 41.9859 84.272C42.0807 84.2462 42.1323 84.1859 42.1323 84.0911V81.826C42.1323 81.7184 42.0764 81.6667 41.9644 81.6667H40.44C40.1601 81.6667 39.9146 81.5634 39.7122 81.3567C39.5055 81.15 39.4022 80.9088 39.4022 80.6332V79.983C39.4022 79.7031 39.5055 79.4662 39.7122 79.2595C39.9146 79.0528 40.1601 78.9495 40.44 78.9495ZM11.2781 74.7337L7.75556 80.0906C7.69527 80.1768 7.69527 80.2586 7.75556 80.3447L11.4805 86.227C11.601 86.4165 11.6053 86.6103 11.4977 86.8041C11.39 86.9979 11.2221 87.0926 10.9895 87.0926H8.87949C8.19049 87.0926 7.66943 86.7998 7.31632 86.2055L4.24166 80.9605C4.24166 80.9476 4.23735 80.939 4.22443 80.939C4.21582 80.939 4.20721 80.9476 4.20721 80.9605V86.0591C4.20721 86.339 4.10386 86.5801 3.89716 86.7868C3.69046 86.9892 3.44931 87.0926 3.17371 87.0926H1.60623C1.33063 87.0926 1.08517 86.9892 0.878475 86.7868C0.671775 86.5801 0.572731 86.339 0.572731 86.0591V74.9145C0.572731 74.6389 0.671775 74.3978 0.878475 74.1911C1.08517 73.9844 1.33063 73.8853 1.60623 73.8853H3.17371C3.44931 73.8853 3.69046 73.9844 3.89716 74.1911C4.10386 74.3978 4.20721 74.6389 4.20721 74.9145V79.4748C4.20721 79.4878 4.21582 79.4921 4.22443 79.4921C4.23735 79.4921 4.24166 79.4878 4.24166 79.4748L7.13546 74.7509C7.48426 74.1738 8.00962 73.8853 8.69862 73.8853H10.8044C11.024 73.8853 11.1876 73.9801 11.2953 74.1738C11.4073 74.3676 11.3986 74.5528 11.2781 74.7337ZM13.4786 86.0591V74.9145C13.4786 74.6389 13.5819 74.3978 13.7843 74.1911C13.9953 73.9844 14.2365 73.8853 14.5164 73.8853H16.4413C16.7212 73.8853 16.9623 73.9844 17.169 74.1911C17.3757 74.3978 17.4791 74.6389 17.4791 74.9145V86.0591C17.4791 86.339 17.3757 86.5801 17.169 86.7868C16.9623 86.9892 16.7212 87.0926 16.4413 87.0926H14.5164C14.2365 87.0926 13.9953 86.9892 13.7843 86.7868C13.5819 86.5801 13.4786 86.339 13.4786 86.0591ZM3.84548 92.7036C5.33114 93.0998 6.38186 93.5735 6.98904 94.129C7.59622 94.6802 7.89766 95.3864 7.89766 96.2434C7.89766 97.2855 7.53594 98.0735 6.81679 98.6161C6.09334 99.163 5.00817 99.4343 3.55696 99.4343C2.55361 99.4343 1.57178 99.2104 0.615794 98.7668C0.404788 98.6721 0.258375 98.5171 0.176556 98.2931C0.0990443 98.0692 0.0904312 97.841 0.159331 97.6041L0.340194 96.941C0.400481 96.7515 0.521056 96.6223 0.710531 96.5534C0.900006 96.4802 1.08517 96.4931 1.26604 96.5879C2.14021 97.0185 2.94978 97.2381 3.69907 97.2381C4.55601 97.2381 4.98233 96.9324 4.98233 96.3166C4.98233 95.9204 4.60338 95.6104 3.84548 95.395C2.45887 94.9989 1.47274 94.5209 0.882781 93.9654C0.297131 93.4099 0 92.7036 0 91.8553C0 90.9208 0.361725 90.1802 1.08087 89.629C1.80432 89.0821 2.82059 88.8065 4.12539 88.8065C5.12444 88.8065 6.05889 88.9443 6.92876 89.2199C7.14838 89.2845 7.31201 89.4266 7.41967 89.6376C7.53163 89.8529 7.56177 90.0725 7.51441 90.2964L7.35938 90.9338C7.32062 91.1319 7.20436 91.2783 7.01488 91.373C6.82541 91.4677 6.63162 91.4764 6.43354 91.4031C5.70147 91.1362 4.98233 91.0027 4.2718 91.0027C3.82395 91.0027 3.48806 91.0802 3.25552 91.2395C3.0316 91.3945 2.91533 91.6012 2.91533 91.8553C2.91533 92.2515 3.22538 92.5357 3.84548 92.7036ZM12.6518 91.8639C13.1642 91.3386 13.879 91.0759 14.8006 91.0759C15.3604 91.0759 15.9116 91.2008 16.4542 91.4548C16.6307 91.5496 16.8245 91.5625 17.0269 91.4936C17.2336 91.4247 17.3671 91.2912 17.4317 91.1017L17.647 90.5505C17.7331 90.3352 17.7374 90.1113 17.6599 89.8873C17.5867 89.6591 17.4446 89.4955 17.2336 89.3878C16.4283 89.0046 15.5197 88.8065 14.5164 88.8065C12.7594 88.8065 11.3943 89.2802 10.4254 90.2189C9.45222 91.1577 8.96561 92.4582 8.96561 94.1204C8.96561 95.7654 9.46944 97.0616 10.4814 98.0089C11.4934 98.9606 12.8369 99.4343 14.5164 99.4343C15.5197 99.4343 16.4283 99.2405 17.2336 98.853C17.4446 98.7496 17.5867 98.5817 17.6599 98.3577C17.7374 98.1295 17.7331 97.9056 17.647 97.6903L17.4317 97.1391C17.3671 96.9496 17.2336 96.8204 17.0269 96.7515C16.8245 96.6783 16.6307 96.6912 16.4542 96.7817C15.9116 97.04 15.3604 97.1649 14.8006 97.1649C13.9307 97.1649 13.2245 96.8936 12.6862 96.351C12.1522 95.8084 11.8809 95.0678 11.8809 94.1204C11.8809 93.1386 12.1393 92.385 12.6518 91.8639ZM25.3294 92.7898V89.7582C25.3294 89.5428 25.4112 89.3534 25.5748 89.1897C25.7341 89.0304 25.9236 88.9486 26.1432 88.9486H27.3662C27.5815 88.9486 27.7753 89.0304 27.9346 89.1897C28.0983 89.3534 28.1758 89.5428 28.1758 89.7582V98.4826C28.1758 98.7022 28.0983 98.8917 27.9346 99.051C27.7753 99.2104 27.5815 99.2922 27.3662 99.2922H26.1432C25.9236 99.2922 25.7341 99.2104 25.5748 99.051C25.4112 98.8917 25.3294 98.7022 25.3294 98.4826V95.1711C25.3294 95.085 25.2863 95.0419 25.2045 95.0419H22.47C22.3839 95.0419 22.3451 95.085 22.3451 95.1711V98.4826C22.3451 98.7022 22.2633 98.8917 22.0997 99.051C21.9403 99.2104 21.7509 99.2922 21.5312 99.2922H20.3083C20.0887 99.2922 19.8992 99.2104 19.7355 99.051C19.5762 98.8917 19.4944 98.7022 19.4944 98.4826V89.7582C19.4944 89.5428 19.5762 89.3534 19.7355 89.1897C19.8992 89.0304 20.0887 88.9486 20.3083 88.9486H21.5312C21.7509 88.9486 21.9403 89.0304 22.0997 89.1897C22.2633 89.3534 22.3451 89.5428 22.3451 89.7582V92.7898C22.3451 92.8716 22.3839 92.9146 22.47 92.9146H25.2045C25.2863 92.9146 25.3294 92.8716 25.3294 92.7898ZM34.9366 97.096C33.3218 97.096 32.5165 96.1056 32.5165 94.1204C32.5165 92.1352 33.3218 91.1448 34.9366 91.1448C36.5471 91.1448 37.3567 92.1352 37.3567 94.1204C37.3567 96.1056 36.5471 97.096 34.9366 97.096ZM34.9366 88.8065C33.3045 88.8065 32.0084 89.2845 31.0438 90.2318C30.0792 91.1792 29.6012 92.4754 29.6012 94.1204C29.6012 95.7654 30.0792 97.0616 31.0438 98.0089C32.0084 98.9606 33.3045 99.4343 34.9366 99.4343C36.5687 99.4343 37.8649 98.9606 38.8295 98.0089C39.7941 97.0616 40.2764 95.7654 40.2764 94.1204C40.2764 92.4754 39.7941 91.1792 38.8295 90.2318C37.8649 89.2845 36.5687 88.8065 34.9366 88.8065ZM43.984 94.1204C43.984 96.1056 44.7936 97.096 46.4041 97.096C48.019 97.096 48.8243 96.1056 48.8243 94.1204C48.8243 92.1352 48.019 91.1448 46.4041 91.1448C44.7936 91.1448 43.984 92.1352 43.984 94.1204ZM42.5113 90.2318C43.4759 89.2845 44.7764 88.8065 46.4085 88.8065C48.0405 88.8065 49.3367 89.2845 50.297 90.2318C51.2616 91.1792 51.7439 92.4754 51.7439 94.1204C51.7439 95.7654 51.2616 97.0616 50.297 98.0089C49.3367 98.9606 48.0405 99.4343 46.4085 99.4343C44.7764 99.4343 43.4759 98.9606 42.5113 98.0089C41.551 97.0616 41.0687 95.7654 41.0687 94.1204C41.0687 92.4754 41.551 91.1792 42.5113 90.2318ZM56.0975 96.8247V89.7582C56.0975 89.5428 56.0157 89.3534 55.8564 89.1897C55.6927 89.0304 55.5033 88.9486 55.2879 88.9486H53.9918C53.7721 88.9486 53.5827 89.0304 53.419 89.1897C53.2597 89.3534 53.1779 89.5428 53.1779 89.7582V98.4826C53.1779 98.7022 53.2597 98.8917 53.419 99.051C53.5827 99.2104 53.7721 99.2922 53.9918 99.2922H59.4822C59.7018 99.2922 59.8913 99.2104 60.0507 99.051C60.2143 98.8917 60.2961 98.7022 60.2961 98.4826V97.7635C60.2961 97.5439 60.2143 97.3544 60.0507 97.1951C59.8913 97.0357 59.7018 96.9539 59.4822 96.9539H56.2267C56.1406 96.9539 56.0975 96.9108 56.0975 96.8247ZM47.2869 78.2174C47.2783 78.2476 47.3042 78.2777 47.3343 78.2648L49.13 76.1246C50.0515 74.9662 49.8707 73.3298 49.0525 72.6753C48.1568 71.9561 46.6797 72.0939 46.5893 73.5193C46.4989 73.9241 46.697 74.57 46.8778 75.1815H46.8821C46.964 75.4571 47.0458 75.7284 47.0975 75.9652C47.2783 76.7791 47.4549 77.5973 47.2869 78.2174ZM2.6182 104.468C1.82585 104.468 1.42967 103.986 1.42967 103.013C1.42967 102.04 1.82585 101.553 2.6182 101.553C3.40624 101.553 3.80242 102.04 3.80242 103.013C3.80242 103.986 3.40624 104.468 2.6182 104.468ZM2.6182 100.408C1.81724 100.408 1.17991 100.64 0.710531 101.105C0.236844 101.57 0 102.208 0 103.013C0 103.818 0.236844 104.451 0.710531 104.916C1.17991 105.381 1.81724 105.614 2.6182 105.614C3.41916 105.614 4.05218 105.381 4.52587 104.916C4.99525 104.451 5.23209 103.818 5.23209 103.013C5.23209 102.208 4.99525 101.57 4.52587 101.105C4.05218 100.64 3.41916 100.408 2.6182 100.408ZM9.59432 104.386L8.69432 102.957C8.66848 102.927 8.66848 102.892 8.69432 102.858L10.0465 100.804C10.0939 100.735 10.0938 100.662 10.0508 100.588C10.012 100.515 9.94744 100.481 9.86562 100.481H9.05604C8.78905 100.481 8.59097 100.588 8.45747 100.812L7.34646 102.625C7.34646 102.63 7.34646 102.63 7.33785 102.63C7.33354 102.63 7.33354 102.63 7.33354 102.625V100.873C7.33354 100.769 7.29479 100.675 7.21297 100.597C7.13546 100.519 7.04072 100.481 6.93306 100.481H6.33449C6.22684 100.481 6.1364 100.519 6.05459 100.597C5.97707 100.675 5.93832 100.769 5.93832 100.873V105.149C5.93832 105.256 5.97707 105.351 6.05459 105.429C6.1364 105.506 6.22684 105.545 6.33449 105.545H6.93306C7.04072 105.545 7.13546 105.506 7.21297 105.429C7.29479 105.351 7.33354 105.256 7.33354 105.149V103.194C7.33354 103.189 7.33354 103.185 7.33785 103.185C7.34646 103.185 7.34646 103.189 7.34646 103.194L8.52637 105.205C8.65987 105.433 8.86226 105.545 9.12494 105.545H9.25844C9.3015 105.545 9.32303 105.566 9.32303 105.609V106.26C9.32303 106.367 9.36179 106.458 9.4393 106.54C9.51681 106.617 9.61155 106.656 9.71921 106.656H10.2489C10.3565 106.656 10.447 106.617 10.5288 106.54C10.6063 106.458 10.645 106.367 10.645 106.26V104.83C10.645 104.722 10.6063 104.632 10.5288 104.554C10.447 104.473 10.3565 104.434 10.2489 104.434H9.68476C9.646 104.434 9.61586 104.417 9.59432 104.386ZM13.3537 102.832L14.0513 100.855C14.0857 100.743 14.1546 100.653 14.2537 100.584C14.3484 100.515 14.4561 100.481 14.5723 100.481H15.3432C15.4336 100.481 15.5068 100.519 15.5542 100.597C15.6015 100.675 15.6102 100.756 15.5714 100.838L14.1245 104.089C13.9092 104.572 13.6034 104.938 13.2159 105.179C12.8283 105.424 12.303 105.562 11.6355 105.601C11.5235 105.609 11.4245 105.579 11.3384 105.506C11.2522 105.429 11.2049 105.338 11.1962 105.226L11.1704 104.895C11.1575 104.787 11.1919 104.697 11.2608 104.619C11.334 104.542 11.4245 104.503 11.5321 104.498C11.8809 104.486 12.1264 104.447 12.2728 104.382C12.4235 104.322 12.5226 104.219 12.5786 104.072C12.5915 104.042 12.5915 104.003 12.5699 103.964L11.0843 100.834C11.0455 100.748 11.0541 100.67 11.1015 100.593C11.1532 100.519 11.2221 100.481 11.3168 100.481H12.1092C12.2254 100.481 12.3331 100.515 12.4321 100.584C12.5269 100.653 12.5958 100.743 12.6345 100.855L13.3321 102.832C13.3321 102.836 13.3321 102.836 13.3408 102.836C13.3494 102.836 13.3537 102.836 13.3537 102.832ZM20.7475 104.468C19.9552 104.468 19.559 103.986 19.559 103.013C19.559 102.04 19.9552 101.553 20.7475 101.553C21.5356 101.553 21.9317 102.04 21.9317 103.013C21.9317 103.986 21.5356 104.468 20.7475 104.468ZM20.7475 100.408C19.9466 100.408 19.3092 100.64 18.8398 101.105C18.3662 101.57 18.1293 102.208 18.1293 103.013C18.1293 103.818 18.3662 104.451 18.8398 104.916C19.3092 105.381 19.9466 105.614 20.7475 105.614C21.5485 105.614 22.1815 105.381 22.6552 104.916C23.1246 104.451 23.3614 103.818 23.3614 103.013C23.3614 102.208 23.1246 101.57 22.6552 101.105C22.1815 100.64 21.5485 100.408 20.7475 100.408ZM25.7428 102.978C26.0442 102.978 26.2767 102.909 26.4361 102.772C26.5997 102.63 26.6815 102.436 26.6815 102.182C26.6815 101.695 26.3672 101.45 25.7428 101.45C25.6523 101.45 25.5662 101.458 25.4801 101.471C25.4456 101.48 25.4284 101.506 25.4284 101.549V102.897C25.4284 102.931 25.4456 102.953 25.4801 102.961C25.592 102.974 25.6782 102.978 25.7428 102.978ZM25.6007 100.408C27.181 100.408 27.9734 100.976 27.9734 102.108C27.9734 102.724 27.7968 103.194 27.4394 103.508C27.082 103.827 26.5653 103.986 25.8806 103.986C25.7772 103.986 25.648 103.977 25.4887 103.969C25.4456 103.969 25.4284 103.986 25.4284 104.02V105.149C25.4284 105.256 25.3896 105.351 25.3078 105.429C25.2303 105.506 25.1356 105.545 25.0279 105.545H24.4638C24.3561 105.545 24.2657 105.506 24.1839 105.429C24.1064 105.351 24.0676 105.256 24.0676 105.149V100.911C24.0676 100.799 24.1021 100.7 24.1753 100.61C24.2528 100.524 24.3475 100.476 24.4595 100.464C24.8514 100.429 25.2346 100.408 25.6007 100.408ZM28.46 100.873V101.226C28.46 101.333 28.5031 101.428 28.5806 101.506C28.6581 101.587 28.7528 101.626 28.8605 101.626H29.7777C29.8208 101.626 29.8423 101.643 29.8423 101.686V105.149C29.8423 105.256 29.8811 105.351 29.9586 105.429C30.0318 105.506 30.1265 105.545 30.2342 105.545H30.8758C30.9835 105.545 31.0739 105.506 31.1514 105.429C31.2289 105.351 31.2677 105.256 31.2677 105.149V101.686C31.2677 101.643 31.2849 101.626 31.328 101.626H32.2495C32.3572 101.626 32.4476 101.587 32.5294 101.506C32.6069 101.428 32.6457 101.333 32.6457 101.226V100.873C32.6457 100.769 32.6069 100.675 32.5294 100.597C32.4476 100.519 32.3572 100.481 32.2495 100.481H28.8605C28.7528 100.481 28.6581 100.519 28.5806 100.597C28.5031 100.675 28.46 100.769 28.46 100.873ZM35.8151 103.534C35.8581 103.534 35.8711 103.512 35.8624 103.478L35.4318 101.665C35.4318 101.661 35.4275 101.656 35.4146 101.656L35.4103 101.661V101.665L34.9754 103.478C34.9667 103.512 34.9797 103.534 35.0184 103.534H35.8151ZM35.0959 100.481H35.772C35.8883 100.481 35.9916 100.515 36.0864 100.584C36.1854 100.653 36.25 100.743 36.2888 100.855L37.7184 105.17C37.7486 105.265 37.7357 105.351 37.6797 105.429C37.6237 105.506 37.5462 105.545 37.4471 105.545H36.7538C36.6376 105.545 36.5342 105.51 36.4438 105.437C36.3534 105.368 36.2974 105.274 36.2672 105.166L36.1424 104.628C36.1337 104.593 36.1079 104.572 36.0648 104.572H34.7687C34.7299 104.572 34.7084 104.593 34.6955 104.628L34.5706 105.166C34.5447 105.274 34.4844 105.368 34.394 105.437C34.3036 105.51 34.2002 105.545 34.084 105.545H33.4208C33.3218 105.545 33.2442 105.506 33.1883 105.429C33.128 105.351 33.1151 105.265 33.1495 105.17L34.5792 100.855C34.6179 100.743 34.6825 100.653 34.7773 100.584C34.872 100.515 34.9797 100.481 35.0959 100.481ZM38.9543 100.873V103.116C38.9543 103.598 38.907 103.934 38.8208 104.128C38.7304 104.318 38.5668 104.438 38.3299 104.49C38.2266 104.511 38.1361 104.567 38.0672 104.645C37.994 104.727 37.9639 104.821 37.9768 104.929L38.0027 105.226C38.0113 105.338 38.0629 105.429 38.1491 105.498C38.2395 105.566 38.3342 105.597 38.4419 105.579C39.1567 105.493 39.6519 105.269 39.9275 104.916C40.2075 104.559 40.3496 103.947 40.3496 103.082V101.652C40.3496 101.609 40.3668 101.587 40.4012 101.587H41.228C41.2668 101.587 41.2883 101.609 41.2883 101.652V105.149C41.2883 105.256 41.3271 105.351 41.4046 105.429C41.4821 105.506 41.5725 105.545 41.6802 105.545H42.2874C42.395 105.545 42.4855 105.506 42.5673 105.429C42.6448 105.351 42.6835 105.256 42.6835 105.149V100.873C42.6835 100.769 42.6448 100.675 42.5673 100.597C42.4855 100.519 42.395 100.481 42.2874 100.481H39.3419C39.2342 100.481 39.1438 100.519 39.0663 100.597C38.9931 100.675 38.9543 100.769 38.9543 100.873ZM47.8123 100.873C47.8123 100.769 47.851 100.675 47.9329 100.597C48.0104 100.519 48.1051 100.481 48.2085 100.481H48.8113C48.9147 100.481 49.0094 100.519 49.0869 100.597C49.1688 100.675 49.2075 100.769 49.2075 100.873V105.149C49.2075 105.256 49.1688 105.351 49.0869 105.429C49.0094 105.506 48.9147 105.545 48.8113 105.545H48.2085C48.1051 105.545 48.0104 105.506 47.9329 105.429C47.851 105.351 47.8123 105.256 47.8123 105.149V100.873ZM45.4051 104.572C45.9175 104.572 46.1716 104.343 46.1716 103.878C46.1716 103.689 46.107 103.538 45.9735 103.426C45.84 103.31 45.6506 103.254 45.4051 103.254C45.3017 103.254 45.207 103.263 45.1166 103.275C45.0778 103.284 45.0563 103.31 45.0563 103.353V104.477C45.0563 104.52 45.0778 104.542 45.1166 104.554C45.2156 104.567 45.3104 104.572 45.4051 104.572ZM45.5429 102.285C46.1587 102.285 46.6324 102.423 46.964 102.703C47.2955 102.983 47.4635 103.375 47.4635 103.878C47.4635 104.49 47.2955 104.933 46.9553 105.205C46.6195 105.48 46.0683 105.614 45.3017 105.614C44.9142 105.614 44.5137 105.597 44.096 105.558C43.9797 105.549 43.8893 105.502 43.8118 105.416C43.7343 105.33 43.6955 105.231 43.6955 105.114V100.873C43.6955 100.769 43.7343 100.675 43.8118 100.597C43.8936 100.519 43.9883 100.481 44.096 100.481H44.6601C44.7678 100.481 44.8582 100.519 44.94 100.597C45.0175 100.675 45.0563 100.769 45.0563 100.873V102.255C45.0563 102.268 45.0606 102.285 45.0735 102.298C45.0864 102.311 45.0994 102.315 45.1123 102.311C45.2888 102.294 45.4309 102.285 45.5429 102.285ZM50.6846 100.873V103.125C50.6846 103.164 50.6673 103.185 50.6286 103.185H50.3358C50.2281 103.185 50.1377 103.224 50.0558 103.306C49.9783 103.383 49.9396 103.474 49.9396 103.581V103.693C49.9396 103.801 49.9783 103.891 50.0558 103.969C50.1377 104.051 50.2281 104.089 50.3358 104.089H50.6286C50.6673 104.089 50.6846 104.111 50.6846 104.15V105.149C50.6846 105.256 50.7233 105.351 50.8051 105.429C50.8826 105.506 50.9774 105.545 51.0807 105.545H51.7267C51.8343 105.545 51.9248 105.506 51.998 105.429C52.0755 105.351 52.1142 105.256 52.1142 105.149V104.15C52.1142 104.111 52.1358 104.089 52.1788 104.089H53.0315C53.1391 104.089 53.2296 104.051 53.3071 103.969C53.3889 103.891 53.4276 103.801 53.4276 103.693V103.581C53.4276 103.474 53.3889 103.383 53.3071 103.306C53.2296 103.224 53.1391 103.185 53.0315 103.185H52.1788C52.1358 103.185 52.1142 103.164 52.1142 103.125V101.686C52.1142 101.643 52.1358 101.626 52.1788 101.626H53.5741C53.6817 101.626 53.7721 101.587 53.8497 101.506C53.9272 101.428 53.9659 101.333 53.9659 101.226V100.873C53.9659 100.769 53.9272 100.675 53.8497 100.597C53.7721 100.519 53.6817 100.481 53.5741 100.481H51.0807C50.9774 100.481 50.8826 100.519 50.8051 100.597C50.7233 100.675 50.6846 100.769 50.6846 100.873ZM58.888 100.873C58.888 100.769 58.931 100.675 59.0085 100.597C59.0861 100.519 59.1808 100.481 59.2884 100.481H59.887C59.9947 100.481 60.0851 100.519 60.1669 100.597C60.2444 100.675 60.2832 100.769 60.2832 100.873V105.149C60.2832 105.256 60.2444 105.351 60.1669 105.429C60.0851 105.506 59.9947 105.545 59.887 105.545H59.2884C59.1808 105.545 59.0861 105.506 59.0085 105.429C58.931 105.351 58.888 105.256 58.888 105.149V100.873ZM56.4808 104.572C56.9932 104.572 57.2516 104.343 57.2516 103.878C57.2516 103.689 57.1827 103.538 57.0492 103.426C56.92 103.31 56.7305 103.254 56.4808 103.254C56.3774 103.254 56.2827 103.263 56.1966 103.275C56.1535 103.284 56.132 103.31 56.132 103.353V104.477C56.132 104.52 56.1535 104.542 56.1966 104.554C56.2913 104.567 56.3903 104.572 56.4808 104.572ZM56.6229 102.285C57.2344 102.285 57.7081 102.423 58.0396 102.703C58.3755 102.983 58.5392 103.375 58.5392 103.878C58.5392 104.49 58.3712 104.933 58.0353 105.205C57.6951 105.48 57.1439 105.614 56.3774 105.614C55.9899 105.614 55.5894 105.597 55.1717 105.558C55.0597 105.549 54.965 105.502 54.8875 105.416C54.8099 105.33 54.7712 105.231 54.7712 105.114V100.873C54.7712 100.769 54.8099 100.675 54.8918 100.597C54.9693 100.519 55.064 100.481 55.1717 100.481H55.7358C55.8434 100.481 55.9382 100.519 56.0157 100.597C56.0932 100.675 56.132 100.769 56.132 100.873V102.255C56.132 102.268 56.1406 102.285 56.1492 102.298C56.1621 102.311 56.175 102.315 56.1879 102.311C56.3645 102.294 56.5109 102.285 56.6229 102.285Z" fill="url(#paint0_linear_22_359)"/>
<defs>
<linearGradient id="paint0_linear_22_359" x1="0.424079" y1="1.53887" x2="71.3315" y2="10.2273" gradientUnits="userSpaceOnUse">
<stop stop-color="#0060F2"/>
<stop offset="0.454188" stop-color="#1549E6"/>
<stop offset="1" stop-color="#4D27CC"/>
</linearGradient>
</defs>
</svg>
